<svg width="1409" height="1409" viewBox="0 0 1409 1409" fill="none" xmlns="http://www.w3.org/2000/svg">
    <rect width="1409" height="1409" fill="black"/>
    <path d="M686.487 120.607C627.175 127.279 572.797 160.821 542.455 209.534L538.343 216.206L527.467 216.755C494.932 218.491 461.574 229.002 434.523 245.727C410.487 260.716 387 284.113 372.468 307.51L368.996 313.085L357.48 313.633C294.969 316.741 235.931 351.562 202.756 405.028C193.068 420.565 183.929 441.952 179.268 460.048C167.662 504.649 172.962 553.545 193.8 595.221L198.826 605.274L192.794 617.43C166.2 670.805 166.017 734.233 192.337 788.339L198.186 800.311L192.886 810.639C165.377 864.836 165.011 928.63 191.972 983.741C220.943 1043.06 276.691 1082.81 343.132 1091.59C348.981 1092.32 356.475 1092.96 359.674 1092.96H365.614L368.996 1098.53C395.408 1141.58 438.727 1173.02 488.9 1185.72C499.045 1188.19 513.027 1190.38 525.548 1191.21L534.322 1191.85L540.993 1201.9C571.7 1248.15 618.858 1278.22 674.972 1287.35C688.589 1289.55 717.469 1289.55 731.726 1287.35C750.369 1284.43 770.567 1278.31 787.383 1270.36C818.638 1255.55 847.609 1230.14 866.71 1200.71L871.828 1192.94L885.353 1191.85C947.408 1187.19 1000.69 1156.11 1035.14 1104.75L1040.99 1095.97L1051.41 1095.33C1093.18 1092.87 1132.84 1077.69 1164.37 1052.1C1172.59 1045.43 1187.22 1030.72 1193.71 1022.58C1240.77 963.908 1249.64 882.749 1216.46 814.752L1211.16 803.876L1217.38 791.263C1244.06 736.7 1243.88 672.815 1216.92 619.166L1211.98 609.296L1217.28 598.603C1226.79 579.684 1232.91 560.674 1236.39 539.105C1238.76 524.299 1238.49 494.687 1235.75 479.424C1232.18 458.86 1227.34 444.054 1218.11 424.587L1213.35 414.807H1205.4C1166.93 414.807 1123.34 430.893 1089.52 457.672C1079.28 465.714 1061.74 484.085 1054.7 494.23C1046.29 506.294 1046.02 506.477 1049.77 498.891C1075.26 446.887 1076.27 386.475 1052.6 332.735C1050.31 327.617 1048.58 323.412 1048.76 323.412C1048.94 323.412 1050.41 325.606 1052.05 328.165C1060.64 341.691 1077.91 360.153 1092.54 371.76C1124.16 396.711 1160.99 410.695 1202.57 413.528C1208.42 413.893 1211.89 413.802 1211.89 413.254C1211.89 411.243 1198.73 392.598 1190.51 383.093C1168.85 357.868 1137.32 336.848 1105.42 326.246C1087.69 320.305 1064.48 316.101 1049.67 316.101H1044.19L1040.08 309.52C1023.44 282.559 998.678 258.796 970.164 242.802C946.311 229.367 915.695 220.045 890.928 218.765C875.3 217.851 876.58 218.491 870.183 208.803C859.49 192.261 846.878 177.912 832.712 166.122C804.655 142.542 771.481 127.462 735.747 121.795C725.054 120.059 696.814 119.419 686.487 120.607ZM728.07 148.94C759.874 187.143 807.945 211.911 860.038 217.029L866.893 217.76L855.926 218.857C801.914 224.523 751.283 252.581 720.302 294.257C710.888 306.961 710.797 307.053 714.179 300.107C732.091 263 737.483 217.577 728.801 176.175C726.059 162.832 721.216 148.208 716.006 137.058C713.813 132.397 711.985 128.284 711.985 128.101C711.985 127.827 714.27 130.843 717.103 134.773C719.936 138.795 724.871 145.101 728.07 148.94ZM700.013 133.402C696.723 139.983 690.326 157.256 687.858 166.213C676.16 209.717 679.633 255.232 697.911 297.365C700.104 302.392 701.201 305.499 700.287 304.22C684.568 281.371 666.473 263.275 645.27 249.2C634.851 242.254 614.197 231.835 603.23 227.905C588.242 222.604 564.024 217.394 554.153 217.394C551.96 217.394 550.223 216.937 550.223 216.48C550.223 215.932 552.051 215.566 554.336 215.566C564.389 215.566 586.414 211.088 601.859 205.879C636.862 194.089 668.3 172.062 691.696 142.633C695.809 137.515 699.556 132.488 700.104 131.483C702.024 127.919 701.932 129.747 700.013 133.402ZM547.939 231.561C558.723 247.189 574.899 263.823 590.527 275.522C618.584 296.36 647.372 307.967 684.568 313.359C691.696 314.364 694.438 315.004 691.971 315.096C685.025 315.278 668.94 317.929 657.882 320.671C611.455 332.369 572.157 360.062 543.643 401.098C542.729 402.378 543.918 399.453 546.111 394.609C557.352 370.024 563.932 339.955 563.932 312.902C563.932 285.849 557.261 255.78 546.02 232.018C541.45 222.421 541.541 222.33 547.939 231.561ZM529.569 233.297C510.56 273.419 506.63 323.504 519.059 367.465C521.984 377.61 527.559 392.507 531.58 400.458C534.504 406.308 534.139 405.942 528.655 397.899C502.243 359.057 461.849 330.998 415.422 319.3C408.842 317.563 399.155 315.735 393.945 315.187C378.774 313.542 377.495 312.902 387.731 312.171C399.703 311.348 416.884 307.784 430.959 303.214C444.302 298.827 465.778 288.408 477.111 280.914C495.755 268.393 513.576 251.485 526.462 234.028C530.209 228.91 533.408 224.706 533.499 224.706C533.59 224.706 531.854 228.636 529.569 233.297ZM889.192 237.684C921.818 281.645 973.728 310.526 1028.2 315.004L1036.88 315.735L1025.91 316.832C980.126 321.676 940.462 339.772 908.567 370.481C898.879 379.803 887.638 393.147 882.063 401.738C880.418 404.388 878.865 406.582 878.773 406.582C878.591 406.582 880.418 402.378 882.886 397.168C891.385 379.346 896.96 360.245 899.885 339.407C901.895 324.326 901.255 295.263 898.514 280.822C895.772 266.016 891.02 250.479 885.262 236.953C882.52 230.464 880.784 225.985 881.332 226.899C881.972 227.905 885.445 232.749 889.192 237.684ZM866.893 235.125C853.732 263.275 847.335 298.553 849.802 329.262C851.722 352.567 856.565 372.309 865.43 393.33C867.898 399.179 869.817 403.931 869.634 403.749C869.451 403.566 866.984 400.001 863.968 395.889C839.932 362.347 804.838 336.756 765.266 323.961C753.477 320.214 735.838 316.466 724.78 315.553L717.012 314.821L728.892 313.359C745.343 311.257 754.39 309.246 768.19 304.677C798.075 294.897 823.116 279.269 845.873 256.329C852.453 249.657 860.587 240.334 864.151 235.399C867.624 230.555 870.64 226.534 870.731 226.534C870.822 226.534 869.086 230.372 866.893 235.125ZM378.866 328.439C409.664 372.857 459.381 402.743 514.124 409.781C520.613 410.603 526.188 411.426 526.371 411.7C526.553 411.883 524.817 412.066 522.349 412.066C516.043 412.066 499.959 414.533 489.814 417.092C461.849 424.221 435.254 437.382 413.32 455.204C403.084 463.521 389.284 477.87 381.79 487.923C378.317 492.676 375.027 496.971 374.662 497.428C374.205 497.885 375.667 494.23 377.861 489.203C400.434 437.748 400.068 378.615 376.855 328.896C372.377 319.3 372.468 319.3 378.866 328.439ZM716.098 329.353C742.51 367.373 783.453 395.523 829.422 406.947C838.561 409.232 855.286 411.974 861.043 412.157C862.78 412.248 858.667 412.98 851.996 413.985C830.702 416.909 814.617 421.114 798.258 428.151C764.261 442.683 733.005 468.091 714.27 496.332C712.351 499.256 710.706 501.633 710.614 501.633C710.432 501.633 712.351 497.246 714.727 491.762C723.5 472.112 729.075 451.548 731.269 430.436C732.548 417.732 731.908 393.238 729.806 380.991C726.79 362.895 720.21 341.691 713.173 327.525C709.518 320.214 709.975 320.488 716.098 329.353ZM359.491 331.821C347.884 358.325 342.858 382.362 342.766 411.609C342.766 436.285 346.513 457.215 355.287 480.52C357.023 485.364 359.674 491.671 361.136 494.504C362.598 497.428 363.604 499.805 363.421 499.805C363.238 499.805 360.313 495.966 357.023 491.305C328.966 451.914 285.83 424.038 237.85 414.259C231.453 412.98 222.588 411.7 218.201 411.426C209.245 410.786 206.411 409.324 214.271 409.324C221.582 409.324 237.484 406.765 249.274 403.749C283.545 394.975 316.537 375.69 341.03 350.283C348.341 342.605 357.48 331.364 360.953 325.88C362.05 324.052 363.147 322.499 363.329 322.499C363.512 322.499 361.776 326.703 359.491 331.821ZM698.825 329.536C688.224 350.648 681.461 378.706 680.273 405.668C679.084 434.64 684.659 463.795 696.906 491.945C699.099 497.063 700.287 500.17 699.373 498.982C664.828 449.263 615.385 419.103 558.174 412.705L547.939 411.517L560.733 409.963C615.477 403.2 665.741 373.771 696.175 330.45C698.916 326.611 701.384 323.412 701.567 323.412C701.749 323.412 700.561 326.154 698.825 329.536ZM1036.42 331.181C1027.65 350.191 1022.17 369.293 1019.52 389.491C1017.96 401.921 1017.69 424.587 1019.06 435.828C1021.53 455.935 1027.92 478.692 1035.87 495.966C1038.16 500.81 1039.35 503.826 1038.43 502.547C1024.63 482.714 1015.49 472.203 1002.15 460.779C972.175 434.914 936.715 419.103 897.6 414.076C890.745 413.254 886.45 412.431 887.912 412.34C928.673 408.867 961.848 396.528 993.469 372.857C1009.46 360.884 1026.73 342.788 1036.88 327.251C1038.25 325.149 1039.53 323.412 1039.71 323.412C1039.9 323.412 1038.34 326.885 1036.42 331.181ZM207.6 422.302C216.921 436.925 236.388 457.397 251.833 468.913C279.981 489.934 313.339 503.004 349.164 507.116C359.125 508.304 360.77 508.944 353.642 508.944C347.702 508.944 328.601 511.96 318.731 514.519C276.325 525.304 236.662 552.083 210.981 587.27C207.965 591.474 205.315 594.855 205.132 594.855C205.041 594.855 206.229 591.839 207.874 588.184C222.131 556.927 228.071 522.196 224.781 489.203C222.679 467.634 216.556 444.419 208.148 426.415C205.863 421.571 204.127 417.549 204.309 417.549C204.401 417.549 205.954 419.743 207.6 422.302ZM544.831 423.216C557.535 443.048 581.753 466.354 604.235 480.338C628.454 495.418 660.532 506.202 688.315 508.67L695.992 509.31L685.025 510.498C629.642 516.804 580.839 544.497 548.578 588.001C544.831 593.028 541.633 597.323 541.45 597.506C541.176 597.78 542.912 594.033 545.106 589.189C568.502 539.105 568.684 480.246 545.654 428.242C543.278 422.85 541.45 418.463 541.541 418.463C541.724 418.463 543.186 420.657 544.831 423.216ZM866.893 428.699C858.85 445.79 852.453 468.182 849.894 487.923C848.34 500.444 848.614 523.842 850.351 536.82C853.184 556.744 859.855 579.136 867.715 594.673C869.543 598.237 871.005 601.527 871.005 601.893C871.005 602.258 868.538 598.877 865.43 594.307C857.845 583.157 854.738 579.501 844.136 568.534C812.606 536.088 771.937 516.256 725.694 510.681L716.098 509.493L726.334 508.396C783.179 502.364 833.9 472.478 866.436 425.958C868.629 422.85 870.548 420.291 870.64 420.291C870.822 420.291 869.086 424.13 866.893 428.699ZM893.761 439.758C900.342 447.801 915.969 463.064 924.012 469.37C944.209 485.09 970.347 498.068 994.748 504.374C1006.45 507.39 1020.79 509.858 1026.55 509.858C1034.5 509.858 1032.77 511.412 1024.18 511.96C1012.39 512.783 995.205 516.347 981.131 520.917C967.514 525.395 946.22 535.723 934.522 543.583C916.426 555.647 898.696 572.555 886.267 589.555C882.703 594.398 879.687 598.328 879.504 598.237C879.413 598.054 880.601 595.312 882.155 592.114C888.918 577.856 894.767 559.12 897.965 541.389C899.976 530.605 900.798 501.267 899.428 489.02C897.234 469.096 891.111 446.339 883.251 429.522C881.058 424.769 879.23 420.748 879.23 420.474C879.23 420.2 881.241 422.942 883.8 426.597C886.267 430.253 890.745 436.194 893.761 439.758ZM1204.4 430.07C1195.99 447.892 1189.78 470.01 1187.22 490.665C1185.94 501.633 1186.12 525.944 1187.58 537.277C1190.14 556.195 1195.9 576.668 1203.21 592.753C1205.04 596.592 1206.32 599.608 1206.04 599.425C1205.86 599.151 1202.48 594.673 1198.64 589.372C1190.32 578.13 1171.68 559.12 1160.9 551.077C1140.7 535.814 1116.21 523.842 1092.81 517.627C1082.48 514.885 1064.39 511.686 1058.08 511.595L1053.33 511.503L1056.99 510.772C1059 510.315 1065.58 509.401 1071.61 508.579C1103.23 504.466 1134.58 491.488 1161.17 471.655C1176.71 460.048 1194.16 441.769 1204.4 426.415C1206.68 423.033 1208.6 420.291 1208.79 420.291C1208.88 420.291 1206.96 424.678 1204.4 430.07ZM528.564 428.151C505.168 478.784 505.076 539.47 528.381 590.286C530.3 594.581 531.214 597.049 530.3 595.769C495.663 545.959 445.307 515.342 388.096 509.493L377.038 508.396L388.005 507.299C443.296 501.541 494.384 472.386 526.371 428.242C529.112 424.404 531.58 421.205 531.671 421.205C531.763 421.205 530.392 424.312 528.564 428.151ZM359.308 525.487C336.186 575.023 336.004 636.623 358.851 686.159C360.588 689.906 361.776 693.105 361.593 693.288C361.41 693.562 360.679 692.739 360.039 691.551C355.104 682.32 333.353 658.558 319.919 647.865C298.168 630.499 272.304 617.704 245.892 611.215C233.737 608.29 218.109 605.823 211.164 605.823C203.67 605.823 206.046 605.183 217.927 604.086C256.037 600.431 293.141 585.259 322.661 561.313C335.455 550.894 352.911 532.067 359.948 521.1C361.227 518.998 362.507 517.353 362.598 517.535C362.781 517.718 361.319 521.283 359.308 525.487ZM381.425 528.32C407.745 563.416 445.581 588.732 488.261 599.882C500.507 602.99 516.409 605.731 523.812 605.914C526.005 606.006 523.08 606.554 517.323 607.285C460.478 613.957 413.137 640.37 380.602 683.783C376.764 688.901 373.474 693.288 373.2 693.471C373.017 693.745 374.662 689.815 376.855 684.788C399.52 633.516 399.429 575.206 376.581 524.573C374.57 520.277 373.657 517.718 374.57 518.998C375.393 520.277 378.5 524.481 381.425 528.32ZM724.414 536.637C744.612 561.588 776.781 584.436 807.945 595.769C822.751 601.253 847.518 606.737 857.114 606.737C863.968 606.737 861.226 608.29 853.367 608.839C837.191 609.936 814.069 615.968 795.79 623.736C762.707 637.902 732.914 662.67 710.888 694.476C709.975 695.755 711.163 692.831 713.356 688.078C721.49 670.53 727.979 647.225 730.263 627.301C734.01 594.398 727.613 555.281 713.722 525.487C711.802 521.283 710.157 517.627 710.157 517.353C710.157 517.078 712.259 519.912 714.818 523.659C717.377 527.406 721.764 533.164 724.414 536.637ZM1036.51 524.207C1028.93 539.562 1022.99 557.932 1019.42 577.033C1017.5 587.909 1016.68 619.166 1018.05 631.048C1020.34 650.606 1026.55 673.181 1034.05 689.358C1035.78 693.196 1037.06 696.304 1036.88 696.304C1036.79 696.304 1033.86 692.374 1030.39 687.53C1022.99 677.111 1006.99 660.111 996.759 651.886C969.981 630.225 938.817 616.15 905.368 610.393C899.428 609.387 892.665 608.565 890.38 608.565C887.273 608.565 886.45 608.29 887.455 607.651C888.187 607.194 890.563 606.737 892.665 606.737C894.675 606.737 901.255 605.914 907.287 604.909C946.402 598.237 981.954 580.324 1010.19 552.905C1019.61 543.857 1030.94 530.331 1036.33 521.922C1037.98 519.363 1039.53 517.17 1039.71 517.17C1039.9 517.17 1038.52 520.369 1036.51 524.207ZM696.449 527.863C673.875 578.77 673.692 635.618 696.083 686.616C698.277 691.551 699.922 695.481 699.739 695.298C699.556 695.116 696.175 690.637 692.245 685.336C659.984 641.832 611.547 614.14 556.164 607.468C549.767 606.737 547.482 606.188 549.767 606.006C562.47 605.183 585.043 600.796 597.29 596.866C635.491 584.436 670.494 559.211 693.707 527.497C697.454 522.288 700.653 518.084 700.653 518.084C700.744 518.084 698.825 522.471 696.449 527.863ZM1056.44 530.331C1082.57 565.792 1122.88 592.662 1165.56 603.081C1176.62 605.823 1193.16 608.473 1200.29 608.656C1202.39 608.747 1199.01 609.387 1192.7 610.027C1168.03 612.677 1146.64 618.71 1125.53 629.037C1095.64 643.66 1070.05 665.504 1051.23 692.557C1048.58 696.304 1046.48 699.137 1046.48 698.954C1046.48 698.68 1048.03 695.207 1050.04 691.277C1074.53 640.918 1075.26 580.872 1051.87 527.68C1049.49 522.105 1047.94 518.449 1048.58 519.363C1049.22 520.277 1052.69 525.212 1056.44 530.331ZM885.353 624.742C908.567 657.552 943.661 683.234 983.416 696.304C993.56 699.594 1009.83 703.158 1021.34 704.621L1030.48 705.809L1020.25 706.997C964.498 713.303 911.948 744.56 882.155 788.796C879.87 792.269 877.951 795.01 877.768 795.01C877.677 795.01 879.139 791.629 881.058 787.425C888.552 771.339 893.67 754.797 897.143 736.061C899.062 725.276 899.885 695.664 898.514 683.874C896.138 662.945 889.832 640.096 881.515 622.457C879.322 617.613 877.951 614.231 878.591 615.145C879.139 615.968 882.246 620.263 885.353 624.742ZM222.953 638.177C247.72 666.143 282.54 687.347 319.462 696.761C330.703 699.685 347.884 702.519 355.378 702.793C357.206 702.884 355.287 703.341 350.992 703.707C309.683 708.002 274.68 722.169 243.425 747.394C230.539 757.721 215.459 774.081 205.498 788.613C204.675 789.892 205.772 786.785 207.965 781.667C220.303 753.243 225.604 725.367 224.598 695.39C223.593 668.885 218.018 644.483 207.874 622.365C206.137 618.618 204.766 615.419 204.766 615.145C204.766 614.962 207.143 618.07 210.067 622.091C212.9 626.113 218.749 633.333 222.953 638.177ZM867.075 621.086C852.818 649.601 845.598 687.164 848.066 719.244C849.894 742.458 856.474 768.14 865.43 787.333C867.441 791.537 868.903 795.01 868.72 795.01C868.629 795.01 867.075 792.817 865.43 790.166C849.254 764.941 819.369 738.894 790.124 724.728C768.556 714.217 737.118 705.443 720.941 705.443C713.447 705.443 716.098 703.89 724.597 703.341C757.041 701.239 797.618 685.154 825.675 663.036C840.572 651.429 855.834 635.252 865.339 621.086C867.624 617.704 869.634 614.962 869.817 614.962C870 614.962 868.72 617.704 867.075 621.086ZM528.107 622C520.613 638.634 514.672 658.284 511.657 676.654C510.925 681.315 510.469 691.734 510.56 705.443C510.56 724.819 510.834 728.109 513.027 739.534C515.769 753.517 521.71 772.619 526.827 783.495C528.655 787.516 530.118 790.898 530.118 791.08C530.118 791.355 527.833 788.339 525 784.409C493.196 739.899 443.022 710.836 386.634 704.164C380.876 703.433 377.861 702.884 379.962 702.793C386.817 702.61 404.181 699.96 413.594 697.583C450.151 688.444 479.944 671.719 505.899 645.58C511.931 639.548 519.973 630.408 523.72 625.199C527.467 620.08 530.666 615.876 530.757 615.876C530.849 615.876 529.661 618.618 528.107 622ZM559.545 638.451C587.145 669.982 626.9 692.739 668.849 700.874C674.241 701.97 682.009 703.067 686.122 703.341C690.234 703.615 693.433 704.164 693.25 704.529C693.067 704.895 689.229 705.443 684.842 705.718C657.151 707.545 621.874 719.975 597.016 736.609C576.727 750.318 557.992 768.414 544.831 787.15C542.821 790.166 541.084 792.36 541.084 792.086C541.084 791.812 542.912 787.79 545.106 783.038C552.691 766.678 558.174 747.302 560.733 728.018C562.287 715.68 562.561 693.014 561.19 681.681C558.814 662.396 552.508 639.273 545.288 623.736C543.461 619.715 541.998 616.333 541.998 616.059C541.998 615.785 544.374 618.892 547.299 622.914C550.132 626.935 555.707 633.972 559.545 638.451ZM1203.12 626.295C1192.34 649.144 1185.39 680.675 1185.39 707.271C1185.39 733.959 1192.34 765.307 1203.21 788.43C1207.87 798.209 1207.78 798.301 1201.38 789.07C1169.58 743.189 1116.57 712.115 1061.1 706.723L1054.24 705.992L1066.12 704.529C1089.52 701.422 1109.17 695.573 1129.37 685.793C1158.25 671.719 1185.66 648.321 1202.66 623.371C1204.76 620.263 1206.68 617.704 1206.87 617.704C1207.05 617.704 1205.4 621.543 1203.12 626.295ZM359.765 717.964C352.911 731.765 346.239 753.151 343.223 771.248C340.847 785.14 340.482 808.72 342.218 823.617C344.686 843.724 350.352 864.379 357.937 880.83C359.674 884.577 361.045 887.776 361.045 888.05C361.045 888.325 359.308 886.131 357.298 883.115C340.664 859.352 317.543 838.697 291.862 824.348C269.837 812.193 247.172 804.972 220.303 801.499L207.965 799.946L216.556 799.215C246.715 796.93 279.615 785.414 306.302 767.775C326.499 754.522 345.782 735.695 358.303 717.325C360.313 714.309 362.233 711.841 362.415 711.841C362.69 711.841 361.502 714.583 359.765 717.964ZM723.775 731.399C755.03 769.877 802.828 795.65 853.092 801.317C857.571 801.865 861.318 802.413 861.592 802.596C861.775 802.779 858.119 803.236 853.549 803.51C833.535 804.972 808.677 812.01 787.383 822.337C758.96 836.138 735.107 855.788 716.737 880.465C712.99 885.491 709.7 889.787 709.518 890.061C709.243 890.335 710.157 888.325 711.528 885.583C719.479 869.771 726.059 847.654 728.892 827.364C730.537 815.666 730.812 790.623 729.349 778.925C726.973 759.366 720.576 736.792 712.899 720.341C710.888 716.045 709.243 712.298 709.243 712.024C709.243 711.75 711.345 714.583 713.904 718.33C716.463 722.077 720.941 727.926 723.775 731.399ZM390.29 735.147C411.31 759.366 441.56 779.656 472.816 790.349C489.266 796.016 510.194 800.403 521.892 800.585C526.188 800.677 526.553 800.768 524.177 801.408C522.715 801.865 516.866 802.596 511.382 803.145C480.767 806.161 448.14 819.047 419.352 839.428C409.756 846.283 385.994 869.863 378.957 879.733C375.941 883.938 373.382 887.136 373.108 886.954C372.925 886.771 373.931 884.395 375.21 881.836C381.425 869.589 387.822 848.751 390.838 831.203C392.849 819.504 393.488 793.091 392.209 780.296C390.107 760.554 384.989 740.813 377.312 723.265C375.302 718.696 373.474 714.4 373.2 713.669C372.925 712.938 375.027 715.68 378.043 719.792C380.968 723.905 386.543 730.851 390.29 735.147ZM1033.95 722.534C1025.91 739.716 1019.7 762.017 1017.23 782.215C1015.95 793.182 1016.13 817.494 1017.6 828.826C1020.15 847.654 1025.18 865.75 1032.4 882.201C1034.59 887.136 1036.24 891.066 1036.06 890.884C1035.87 890.701 1032.49 886.223 1028.56 881.013C1009.64 855.697 985.152 835.59 956.73 821.972C935.801 812.01 911.674 805.155 891.568 803.51L883.343 802.87L895.681 801.317C940.462 795.742 980.034 776.823 1010.74 746.388C1019.33 737.98 1031.3 723.631 1035.42 717.05C1036.51 715.223 1037.61 713.669 1037.79 713.669C1037.98 713.669 1036.24 717.69 1033.95 722.534ZM694.986 723.814C686.122 744.195 680.73 765.855 678.902 788.796C676.434 819.321 682.74 854.691 695.535 882.749C699.373 890.975 699.373 891.066 689.686 877.814C678.445 862.551 655.78 842.079 637.776 830.837C628.82 825.262 613.192 817.585 602.773 813.746C586.688 807.714 562.196 802.322 550.955 802.322C543.461 802.322 546.111 800.768 554.61 800.22C566.034 799.489 584.404 795.559 598.661 790.806C637.41 777.92 671.865 752.329 695.535 718.878C697.18 716.502 698.733 714.583 698.825 714.583C699.008 714.583 697.271 718.787 694.986 723.814ZM1062.47 734.69C1082.39 758.635 1110.27 778.742 1139.69 790.441C1156.05 796.93 1182.19 803.236 1192.97 803.236C1199.19 803.236 1196.17 804.15 1185.3 805.612C1151.3 810.091 1121.05 822.337 1093.45 842.719C1080.84 852.132 1063.47 869.406 1054.24 881.836C1050.41 887.136 1047.02 891.615 1046.84 891.798C1046.57 892.072 1048.12 888.69 1050.13 884.212C1057.63 868.035 1063.11 849.39 1066.22 829.74C1068.23 816.58 1068.23 788.887 1066.12 775.36C1063.2 756.168 1056.44 733.593 1049.58 719.884C1046.29 713.303 1046.93 713.577 1052.05 720.98C1054.61 724.728 1059.27 730.943 1062.47 734.69ZM212.992 821.88C234.834 851.035 269.654 875.895 305.753 888.05C320.65 893.077 341.487 897.281 352.362 897.464C358.212 897.555 355.287 899.018 348.981 899.109C346.696 899.201 339.933 900.023 333.902 901.028C293.05 907.975 256.585 926.893 228.345 955.591C216.83 967.381 214.819 969.666 208.056 979.08C205.223 983.01 202.939 986.026 202.939 985.752C202.939 985.569 204.584 981.822 206.594 977.526C218.749 951.661 224.69 921.135 223.684 890.609C222.77 863.191 217.378 840.159 206.229 815.483C204.492 811.461 203.67 809.268 204.584 810.547C205.406 811.827 209.245 816.945 212.992 821.88ZM526.005 820.327C515.312 844.638 509.098 873.793 509.098 899.201C509.098 924.974 515.861 956.505 526.371 979.354C530.3 987.854 530.3 987.854 520.521 974.693C512.753 964.091 493.835 945.446 482.229 936.855C453.806 915.834 417.25 901.668 385.994 899.475C377.861 898.926 375.484 897.373 382.796 897.373C385.172 897.373 391.204 896.733 396.23 896.002C428.765 891.066 460.935 877.357 487.347 856.976C498.77 848.111 514.398 832.117 522.806 820.784C526.553 815.666 529.752 811.461 529.843 811.461C529.843 811.461 528.198 815.483 526.005 820.327ZM863.968 820.784C852.179 847.471 847.061 872.148 847.061 901.485C847.152 929.361 852.91 956.414 864.151 981.09C865.979 985.02 867.258 988.036 867.075 987.854C866.801 987.579 863.511 983.193 859.581 977.983C826.589 934.022 777.604 906.329 722.952 900.663L712.442 899.566L719.753 898.835C758.777 895.271 792.775 882.201 823.939 858.713C834.266 850.944 852.818 831.934 860.952 820.875C864.699 815.666 867.898 811.461 867.989 811.461C867.989 811.461 866.253 815.666 863.968 820.784ZM891.934 829.74C922.367 867.395 969.89 893.351 1019.88 899.475L1029.39 900.663L1019.42 901.76C996.485 904.319 976.105 910.351 955.176 920.678C923.738 936.307 899.976 957.054 879.047 986.94C878.134 988.219 879.139 985.477 881.149 980.999C889.192 963.268 895.041 942.522 897.6 922.963C899.245 910.534 898.971 884.486 897.051 872.239C894.127 853.046 887.364 830.472 880.51 816.762C877.22 810.182 877.859 810.547 883.434 818.407C886.267 822.429 890.106 827.456 891.934 829.74ZM550.68 823.8C557.261 832.574 573.802 849.39 582.667 856.336C612.369 879.733 645.087 893.351 682.283 898.012C689.32 898.926 693.616 899.749 691.879 899.84C645.91 903.131 604.784 920.678 570.878 951.661C562.561 959.156 549.492 974.236 543.643 983.101C541.724 985.934 540.171 988.036 540.171 987.762C540.171 987.488 541.816 983.741 543.735 979.537C565.486 933.017 567.405 877.357 548.944 829.101C547.208 824.531 544.923 819.139 543.918 817.037C541.633 812.65 541.45 811.004 543.643 814.203C544.466 815.483 547.665 819.778 550.68 823.8ZM1202.3 820.875C1179.17 869.589 1178.54 929.27 1200.56 980.085C1202.66 985.112 1203.76 988.219 1202.94 986.94C1196.81 977.983 1189.04 968.569 1180.82 960.07C1163.82 942.613 1148.65 931.554 1126.44 920.678C1106.34 910.808 1088.52 905.415 1064.94 902.034C1058.08 901.028 1054.97 900.297 1057.26 900.206C1061.83 900.115 1077.91 897.738 1083.85 896.367C1120.5 887.593 1150.94 871.508 1176.52 847.197C1185.48 838.697 1195.9 826.633 1201.84 817.859C1203.85 814.843 1205.77 812.375 1205.95 812.375C1206.14 812.375 1204.49 816.214 1202.3 820.875ZM388.645 929.087C408.842 952.941 438.727 973.413 469.8 984.655C483.965 989.773 497.582 992.972 515.952 995.348C523.08 996.262 524.177 996.628 520.978 996.81C508.092 997.542 487.804 1001.47 473.912 1006.04C435.437 1018.47 397.875 1045.89 376.398 1077.33C369.727 1087.2 369.635 1087.2 374.388 1076.96C382.521 1059.42 388.736 1037.85 391.204 1018.01C392.574 1006.41 392.3 980.359 390.655 968.478C388.096 950.108 381.151 926.436 374.388 913.093C373.108 910.534 372.012 908.157 372.012 907.792C372.012 907.518 374.296 910.442 377.129 914.372C379.962 918.394 385.172 924.974 388.645 929.087ZM358.394 914.281C344.594 943.344 337.831 980.999 340.847 1012.53C342.949 1034.92 349.164 1058.68 357.298 1076.14C359.4 1080.53 361.045 1084.28 361.045 1084.46C361.045 1084.73 358.76 1081.72 355.927 1077.79C336.004 1050 312.608 1030.17 282.174 1015.18C261.429 1005.04 235.108 997.633 215.459 996.353C205.772 995.714 206.777 994.708 217.653 993.977C251.558 991.692 291.953 975.058 321.564 951.204C331.8 942.887 345.965 928.173 353.733 917.571C357.48 912.544 360.679 908.523 360.77 908.706C360.862 908.797 359.765 911.356 358.394 914.281ZM695.443 916.017C690.326 927.076 684.111 946.269 681.461 959.521C673.601 998.273 678.079 1039.22 694.255 1075.96C696.449 1080.89 698.094 1084.82 697.911 1084.64C697.728 1084.46 694.347 1079.98 690.508 1074.68C681.735 1062.8 663.274 1044.24 651.667 1035.65C622.788 1014.27 590.253 1001.38 555.25 997.542L545.197 996.445L551.594 995.714C599.118 990.687 638.233 972.956 670.768 941.699C679.998 932.834 692.062 918.668 696.266 911.722C697.454 909.894 698.551 908.34 698.733 908.34C698.916 908.34 697.454 911.813 695.443 916.017ZM721.033 924.334C743.789 952.941 776.416 975.607 811.601 987.305C824.853 991.692 842.308 995.531 854.098 996.628L861.409 997.267L848.797 998.912C792.043 1006.13 742.327 1036.57 709.975 1083.82C709.152 1085.1 710.249 1081.99 712.533 1076.96C727.887 1042.51 733.096 1005.77 727.887 968.661C725.42 951.113 718.291 927.35 711.437 913.641C708.33 907.426 708.695 907.152 712.625 912.91C714.453 915.652 718.291 920.77 721.033 924.334ZM1035.14 912.636C1030.66 921.592 1024.36 939.049 1021.34 950.747C1016.68 969.118 1015.04 984.106 1015.68 1004.3C1016.5 1032.64 1021.16 1052.93 1033.13 1080.62C1034.5 1083.82 1034.78 1085.19 1033.86 1083.82C1022.62 1067.73 1007.09 1050.82 993.469 1039.95C965.32 1017.56 933.151 1004.03 895.224 998.821C888.735 997.907 884.896 997.176 886.907 997.085C892.756 996.902 909.206 994.251 919.168 991.875C958.1 982.553 994.383 960.527 1020.15 930.549C1024.54 925.34 1030.12 918.211 1032.49 914.738C1034.78 911.173 1036.88 908.34 1037.06 908.34C1037.24 908.34 1036.42 910.259 1035.14 912.636ZM1063.02 930.823C1083.31 954.769 1110.27 973.962 1140.15 985.66C1153.04 990.687 1171.32 995.439 1183.56 996.993C1199.1 998.912 1199.46 999.095 1189.96 999.918C1134.94 1004.85 1081.84 1036.02 1049.31 1082.36C1047.3 1085.37 1045.56 1087.57 1045.56 1087.29C1045.56 1087.02 1047.39 1082.9 1049.67 1078.15C1060.46 1055.39 1067.5 1023.77 1067.5 997.999C1067.5 971.86 1060.64 940.146 1050.13 917.754C1048.12 913.458 1046.48 909.711 1046.48 909.528C1046.48 909.254 1048.76 912.27 1051.59 916.2C1054.43 920.221 1059.54 926.71 1063.02 930.823ZM525 1016.64C502.883 1068.01 503.249 1123.85 525.914 1174.85C529.386 1182.71 529.661 1182.89 519.608 1169.36C494.658 1135.82 454.537 1109.68 411.766 1098.99C401.714 1096.43 385.629 1093.96 378.774 1093.78C375.85 1093.69 378.683 1093.05 386.634 1092.04C400.525 1090.31 406.831 1089.12 416.793 1086.38C449.694 1077.51 478.208 1061.34 502.061 1038.21C511.017 1029.53 523.08 1015.36 527.193 1008.6C528.381 1006.77 529.478 1005.22 529.569 1005.22C529.752 1005.22 527.65 1010.34 525 1016.64ZM549.492 1018.01C561.099 1033.64 579.925 1051.1 597.473 1062.52C622.971 1079.16 652.216 1089.67 682.74 1093.23L692.336 1094.33L681.826 1095.61C627.54 1101.73 578.92 1129.61 546.751 1172.93C543.004 1177.96 539.805 1182.25 539.622 1182.43C539.348 1182.71 540.81 1179.42 542.821 1175.12C554.61 1149.44 560.551 1122.39 560.551 1093.41C560.551 1064.17 554.153 1035.1 542.364 1010.25C539.805 1004.94 539.714 1004.85 549.492 1018.01ZM894.127 1027.98C920.904 1059.51 961.391 1083.18 1003.16 1091.59C1009.55 1092.96 1018.33 1094.24 1022.62 1094.51C1030.76 1095.15 1030.76 1096.43 1022.53 1096.52C1016.41 1096.61 998.495 1099.81 988.716 1102.65C945.58 1114.71 908.658 1140.3 882.52 1176.13C880.053 1179.42 877.951 1182.25 877.768 1182.52C877.494 1182.71 878.682 1179.87 880.418 1176.13C887.547 1160.22 892.756 1143.59 895.772 1126.23C898.514 1110.78 898.788 1081.53 896.32 1065.9C893.396 1047.72 886.724 1025.69 880.053 1012.35C878.591 1009.42 877.402 1006.86 877.402 1006.5C877.402 1006.22 879.687 1009.15 882.52 1013.08C885.353 1017.1 890.563 1023.77 894.127 1027.98ZM863.694 1014.72C845.781 1053.48 841.486 1100.18 851.904 1142.31C854.92 1154.38 859.947 1168.82 864.059 1176.77C867.441 1183.53 867.075 1183.62 862.597 1177.41C851.265 1161.41 831.798 1141.58 816.993 1131.16C789.119 1111.33 759.051 1099.72 724.78 1095.61L715.184 1094.42L727.522 1092.87C769.287 1087.57 805.569 1070.75 836.642 1042.42C844.867 1034.92 856.84 1021.21 862.871 1012.26C864.882 1009.42 866.71 1007.05 866.893 1007.05C867.075 1007.05 865.613 1010.52 863.694 1014.72ZM696.54 1107.49C689.96 1120.28 683.014 1142.22 679.907 1159.68C677.439 1173.29 676.617 1197.88 678.079 1211.86C680.181 1232.06 686.304 1254.73 694.073 1271.54C695.9 1275.47 697.363 1278.95 697.363 1279.13C697.363 1279.31 694.164 1275.29 690.326 1270.08C658.065 1226.67 608.896 1198.61 554.336 1192.49L544.283 1191.3L554.793 1190.2C591.075 1186.36 625.438 1172.65 654.592 1150.35C665.924 1141.67 682.557 1124.76 690.965 1113.25C694.712 1108.13 697.911 1103.93 698.094 1103.93C698.185 1103.93 697.454 1105.57 696.54 1107.49ZM717.012 1114.71C743.606 1150.17 781.99 1175.49 825.858 1186.64C834.723 1188.83 850.077 1191.39 858.21 1191.94C861.866 1192.12 861.683 1192.21 855.926 1192.85C806.209 1198.15 765.54 1217.25 732.457 1250.61C727.43 1255.73 720.119 1264.14 716.189 1269.44C712.259 1274.65 708.878 1279.13 708.695 1279.31C708.512 1279.49 710.249 1275.56 712.442 1270.54C730.081 1230.51 733.919 1185.72 723.5 1144.32C720.576 1132.9 715.367 1117.91 711.894 1111.05C710.432 1108.22 709.243 1105.48 709.243 1105.2C709.243 1104.38 708.878 1103.83 717.012 1114.71Z" fill="white"/>
    </svg>
    