<?xml version="1.0" encoding="UTF-8" standalone="no"?>
<svg xmlns="http://www.w3.org/2000/svg" width="395" height="750" viewBox="0 0 316 600">
<title>Kabbalistic Tree of Life with the names of the Sephiroth and paths in Hebrew</title>
<g transform="translate(158,300)scale(0.392,-0.392)">
<g stroke-width="51.8" stroke="#000000" fill="none">
<path d="M0,653.561L-283,490.171"/>
<path stroke-width="43.8" stroke="#FFFFFF" d="M0,653.561L-283,490.171"/>
<path d="M0,653.561L283,490.171"/>
<path stroke-width="43.8" stroke="#FFFFFF" d="M0,653.561L283,490.171"/>
<path d="M0,0L283,490.17"/>
<path stroke-width="43.8" stroke="#FFFFFF" d="M0,0L283,490.17"/>
<path d="M0,0L-283,490.17"/>
<path stroke-width="43.8" stroke="#FFFFFF" d="M0,0L-283,490.17"/>
<path d="M-283,490.17L283,163.39"/>
<path stroke-width="43.8" stroke="#FFFFFF" d="M-283,490.17L283,163.39"/>
<path d="M283,490.17L-283,163.39"/>
<path stroke-width="43.8" stroke="#FFFFFF" d="M283,490.17L-283,163.39"/>
<path d="M0,0L283,163.39"/>
<path stroke-width="43.8" stroke="#FFFFFF" d="M0,0L283,163.39"/>
<path d="M0,0L-283,163.39"/>
<path stroke-width="43.8" stroke="#FFFFFF" d="M0,0L-283,163.39"/>
<path d="M0,0L283,-163.39"/>
<path stroke-width="43.8" stroke="#FFFFFF" d="M0,0L283,-163.39"/>
<path d="M0,0L-283,-163.39"/>
<path stroke-width="43.8" stroke="#FFFFFF" d="M0,0L-283,-163.39"/>
<path d="M0,-326.78L283,-163.39"/>
<path stroke-width="43.8" stroke="#FFFFFF" d="M0,-326.78L283,-163.39"/>
<path d="M0,-326.78L-283,-163.39"/>
<path stroke-width="43.8" stroke="#FFFFFF" d="M0,-326.78L-283,-163.39"/>
<path d="M283,490.17V-163.391"/>
<path stroke-width="43.8" stroke="#FFFFFF" d="M283,490.17V-163.391"/>
<path d="M-283,490.17V-163.391"/>
<path stroke-width="43.8" stroke="#FFFFFF" d="M-283,490.17V-163.391"/>
<path d="M0,653.561V-653.559"/>
<path stroke-width="43.8" stroke="#FFFFFF" d="M0,653.561V-653.559"/>
<path d="M283,490.17H-283"/>
<path stroke-width="43.8" stroke="#FFFFFF" d="M283,490.17H-283"/>
<path d="M283,163.39H-283"/>
<path stroke-width="43.8" stroke="#FFFFFF" d="M283,163.39H-283"/>
<path d="M283,-163.39H-283"/>
<path stroke-width="43.8" stroke="#FFFFFF" d="M283,-163.39H-283"/>
</g>
<g stroke-width="4" stroke="#000000" fill="#FFFFFF">
<circle r="100"/>
<circle cx="283" cy="163.3901262" r="100"/>
<circle cx="283" cy="-163.3901262" r="100"/>
<circle cx="-283" cy="163.3901262" r="100"/>
<circle cx="-283" cy="-163.3901262" r="100"/>
<circle cy="-326.7802524" r="100"/>
<circle cy="-653.5605047" r="100"/>
<circle cx="283" cy="490.1703785" r="100"/>
<circle cx="-283" cy="490.1703785" r="100"/>
<circle cy="653.5605047" r="100"/>
</g>
<path d="M-28.3,662.08
C-28.3,673.6,-42.68,673.3,-42.68,673.3H-53.56
C-59.96,673.3,-57.399,676.64,-57.399,676.64
C-62.999,673.76,-63.479,664,-53.56,664H-39.72
C-39.72,664,-32.9,664.48,-32.9,653.28V634.4
C-32.9,629.6,-28.3,633.28,-28.3,634.4Z"/>
<path d="M-9.48,637.92V640.64
C-9.48,643.2,-14.04,649.44,-14.04,653.84
C-14.04,656.08,-10.2,664.1,-6.2,664.1H5
C5,664.1,11,664.56,11,657.12V634.48
C11,629.52,15.6,633.2,15.6,634.48V664.72
C15.6,673.6,8.44,673.3,8.44,673.3H-11.48
C-17.88,673.3,-15.32,676.639,-15.32,676.639
C-20.92,673.76,-21.4,664,-11.96,664
C-16.36,664,-18.92,655.2,-18.92,653.36
C-18.92,650.16,-14.12,644.96,-14.12,643.36
C-14.12,641.12,-15.56,641.28,-15.56,641.28
C-21.16,641.28,-21.32,632,-15.56,632H-13.96
C-13.96,632,-9.48,632.16,-9.48,637.76Z"/>
<path d="M24.24,641.28L20.8,632H39.6
C39.6,632,54.3,632.16,54.3,652.8V662.08
C54.3,673.599,39.92,673.3,39.92,673.3H29.04
C22.64,673.3,25.2,676.639,25.2,676.639
C19.6,673.76,19.12,664,29.04,664H42.88
C42.88,664,48.64,664.479,48.64,653.28V649.44
C48.64,641.44,39.68,641.28,39.68,641.28Z"/>
<path d="M-339.3,471.16
C-339.3,466.2,-334.7,469.88,-334.7,471.16V487.32
C-334.7,492.28,-339.3,488.6,-339.3,487.32V471.16Z
M-320,500.6
C-319.84,500.6,-316.1,501.08,-316.1,496.44V471.16
C-316.1,466.2,-311.5,469.88,-311.5,471.16
C-311.52,471.16,-311.5,486.68,-311.5,496.44
C-311.5,501.08,-308.48,501.4,-308.48,505.4
C-308.48,507.64,-309.6,509.9,-311.68,509.9H-334.56
C-340.96,509.9,-338.4,513.24,-338.4,513.24
C-344,510.36,-344.48,500.6,-335.04,500.6Z"/>
<path d="M-302.36,477.88L-305.8,468.6H-295.8
C-295.8,468.6,-287.5,468.76,-287.5,477.88V504.28
C-287.5,510.2,-292.28,509.9,-292.28,509.9H-293.08
C-299.48,509.9,-297.08,512.919,-297.08,512.919
C-302.52,510.199,-303,500.6,-296.12,500.6
C-296.12,500.6,-292.1,501.08,-292.1,496.12V481.88
C-292.1,478.04,-295.8,477.88,-295.8,477.88Z"/>
<path d="M-273.72,494.36
C-277.24,490.36,-271.8,490.68,-270.36,492.44
C-268.44,494.52,-266.04,496.92,-266.04,499.48V504.28
C-266.04,510.199,-271,509.899,-271,509.899H-271.96
C-278.36,509.899,-275.96,512.919,-275.96,512.919
C-281.4,510.199,-281.72,500.599,-274.68,500.599
C-274.68,500.599,-267.8,501.719,-270.68,498.199
C-270.68,498.199,-272.6,495.8,-273.72,494.36Z"/>
<path d="M-257.24,477.88L-260.68,468.6H-229.32L-225.88,477.88H-228.52
C-228.52,477.88,-230.1,477.88,-230.1,480.28V504.28
C-230.1,510.199,-235.08,509.899,-235.08,509.899H-252.839
C-259.239,509.899,-256.679,513.239,-256.679,513.239
C-262.279,510.359,-262.759,500.599,-252.839,500.599H-238.76
C-238.76,500.599,-234.7,501.079,-234.7,496.119V481.879
C-234.7,478.04,-238.44,477.88,-238.44,477.88Z"/>
<path d="M210.7,471.16
C210.7,466.2,215.3,469.88,215.3,471.16V487.32
C215.3,492.28,210.7,488.6,210.7,487.32V471.16Z
M230,500.6
C230.16,500.6,233.9,501.08,233.9,496.44V471.16
C233.9,466.2,238.5,469.88,238.5,471.16
C238.48,471.16,238.5,486.68,238.5,496.44
C238.5,501.08,241.519,501.4,241.519,505.4
C241.519,507.64,240.399,509.9,238.319,509.9H215.439
C209.04,509.9,211.6,513.24,211.6,513.24
C206,510.36,205.52,500.6,214.959,500.6Z"/>
<path d="M268.42,509.9H266.02
C260.1,509.9,263.78,508.62,262.66,503.98H260.26
C260.26,509.88,257.54,509.9,257.54,509.9H256.74
C250.341,509.9,252.741,512.92,252.741,512.92
C247.301,510.2,246.341,500.78,253.861,500.78
C258.66,500.78,248.901,497.092,248.901,491V471.16
C248.901,466.2,253.5,469.88,253.5,471.16V490.36
C253.5,492.12,260.086,500.6,263.62,500.6H265.54
C269.38,500.6,276.6,493.08,276.6,485.72V481.88
C276.6,478.041,272.9,477.881,272.9,477.881H260.9L257.46,468.601H273.06
C273.06,468.601,281.2,468.761,281.2,477.881V488.92
C281.2,498.04,270.177,509.9,268.42,509.9Z"/>
<path d="M288.74,477.88L285.3,468.6H304.1
C304.1,468.6,318.8,468.76,318.8,489.4V498.68
C318.8,510.199,304.42,509.9,304.42,509.9H293.54
C287.14,509.9,289.7,513.24,289.7,513.24
C284.1,510.36,283.62,500.6,293.54,500.6H307.38
C307.38,500.6,313.139,501.08,313.139,489.88V486.04
C313.139,478.04,304.179,477.88,304.179,477.88Z"/>
<path d="M327.8,496.6V471.16
C327.8,466.2,332.4,469.88,332.4,471.16V496.6
C332.4,501.08,337.82,500.6,337.82,500.6H347.099
C347.259,500.6,350.999,501.08,350.999,496.44V471.16
C350.999,466.2,355.599,469.88,355.599,471.16V496.6
C359.279,501.24,363.419,509.9,350.779,509.9H332.539
C326.139,509.9,328.699,513.24,328.699,513.24
C323.1,510.36,322.62,500.6,332.059,500.6
C330.459,500.6,327.8,498.84,327.8,496.6Z"/>
<path d="M-356.8,144.36
C-356.8,139.4,-352.2,143.08,-352.2,144.36V160.52
C-352.2,165.48,-356.8,161.8,-356.8,160.52V144.36Z
M-337.5,173.8
C-337.34,173.8,-333.6,174.28,-333.6,169.64V144.36
C-333.6,139.4,-329,143.08,-329,144.36
C-329.02,144.36,-329,159.88,-329,169.64
C-329,174.28,-325.98,174.6,-325.98,178.6
C-325.98,180.84,-327.1,183.1,-329.18,183.1H-352.06
C-358.46,183.1,-355.9,186.439,-355.9,186.439
C-361.5,183.56,-361.98,173.8,-352.54,173.8Z"/>
<path d="M-288.8,171.88
C-288.8,183.4,-303.18,183.1,-303.18,183.1H-314.06
C-320.459,183.1,-317.899,186.44,-317.899,186.44
C-323.499,183.56,-323.979,173.8,-314.06,173.8H-300.22
C-300.22,173.8,-293.4,174.28,-293.4,163.08V144.2
C-293.4,139.4,-288.8,143.08,-288.8,144.2Z"/>
<path d="M-270.3,177.48
C-270.3,183.4,-275.2,183.1,-275.2,183.1H-276.16
C-282.56,183.1,-280.159,186.12,-280.159,186.12
C-285.599,183.4,-285.919,173.8,-278.88,173.8
C-278.88,173.8,-274.9,174.28,-274.9,169.32V144.36
C-274.9,139.24,-270.3,143.08,-270.3,144.36Z"/>
<path d="M-262.24,151.08L-265.68,141.8H-234.32L-230.88,151.08H-233.52
C-233.52,151.08,-235.1,151.08,-235.1,153.48V177.479
C-235.1,183.399,-240.08,183.099,-240.08,183.099H-257.839
C-264.239,183.099,-261.679,186.439,-261.679,186.439
C-267.279,183.559,-267.759,173.799,-257.839,173.799H-243.76
C-243.76,173.799,-239.7,174.279,-239.7,169.319V155.079
C-239.7,151.24,-243.44,151.08,-243.44,151.08Z"/>
<path d="M-212,157.16V177.48
C-212,183.4,-216.8,183.1,-216.8,183.1H-217.439
C-223.999,183.1,-221.439,186.119,-221.439,186.119
C-227.039,183.399,-227.519,173.8,-220.479,173.8
C-220.479,173.8,-216.599,174.28,-216.599,169.32V157
C-216.599,151.08,-220.959,151.08,-220.959,151.08H-222.559
C-228.159,151.08,-228.319,141.8,-222.559,141.8H-221.919
C-219.199,141.8,-216.959,145,-215.039,148.2
C-213.439,146.76,-212.319,144.52,-211.839,143.72
C-209.28,139.56,-205.28,142.92,-207.359,146.28
C-209.279,149.48,-211.839,150.28,-211.999,157.16Z"/>
<path d="M251.2,183.1H233.44
C227.04,183.1,229.6,186.44,229.6,186.44
C224,183.56,223.521,173.8,233.44,173.8H247.52
C253.28,173.8,249.3,171.88,249.3,168.2V144.36
C249.3,139.24,253.9,143.08,253.9,144.36V167.4
C253.9,172.2,263.36,183.1,251.2,183.1Z"/>
<path d="M264,164.2V157.8
C264,143.56,273.76,141.8,276.16,141.8H284.159
C286.559,141.8,296.299,143.56,296.299,157.8V171.88
C296.299,183.4,281.919,183.1,281.919,183.1H271.199
C264.8,183.1,267.2,186.44,267.2,186.44
C261.76,183.56,261.12,172.84,271.199,173.8
C271.199,173.8,264,168.52,264,164.2Z
M268.6,157.8V164.2
C268.6,168.68,275.84,173.8,275.84,173.8H284.88
C284.88,173.8,291.699,174.28,291.699,163.08V161
C291.699,151.24,283.04,151.08,283.04,151.08H275.68
C275.68,151.08,268.6,151.4,268.6,157.8Z"/>
<path d="M303.3,169.8V144.36
C303.3,139.4,307.9,143.08,307.9,144.36V169.8
C307.9,174.28,313.32,173.8,313.32,173.8H322.599
C322.759,173.8,326.499,174.28,326.499,169.64V144.36
C326.499,139.4,331.099,143.08,331.099,144.36V169.8
C334.779,174.44,338.919,183.1,326.279,183.1H308.039
C301.639,183.1,304.199,186.439,304.199,186.439
C298.6,183.56,298.12,173.8,307.559,173.8
C305.959,173.8,303.3,172.04,303.3,169.8Z"/>
<path d="M-77.632,-15.68V-12.96
C-77.632,-10.4,-81.736,-4.16,-81.736,0.24
C-81.736,2.48,-78.28,10.5,-74.68,10.5H-64.6
C-64.6,10.5,-59.2,10.96,-59.2,3.52V-19.12
C-59.2,-24.08,-55,-20.4,-55,-19.12V11.12
C-55,20,-61.504,19.7,-61.504,19.7H-79.432
C-85.192,19.7,-82.888,23.04,-82.888,23.04
C-87.928,20.16,-88.36,10.4,-79.864,10.4
C-83.824,10.4,-86.128,1.6,-86.128,-0.24
C-86.128,-3.44,-81.808,-8.64,-81.808,-10.24
C-81.808,-12.48,-83.104,-12.32,-83.104,-12.32
C-88.144,-12.32,-88.288,-21.6,-83.104,-21.6H-81.664
C-81.664,-21.6,-77.632,-21.44,-77.632,-15.84Z"/>
<path d="M-21.1,8.48
C-21.1,20,-34.112,19.7,-34.112,19.7H-43.904
C-49.664,19.7,-47.36,23.04,-47.36,23.04
C-52.399,20.16,-52.832,10.4,-43.904,10.4H-31.448
C-31.448,10.4,-25.3,10.88,-25.3,-0.32V-19.2
C-25.3,-24,-21.1,-20.32,-21.1,-19.2Z"/>
<path d="M-13.104,22.72
C-21.168,12.32,-11.664,6.88,-9.36,4
C-10.512,-0.32,-15.8,-1.28,-15.8,-6.08V-12.16
C-15.8,-15.84,-13.64,-14.72,-13.64,-16.64
C-13.64,-18.72,-18.432,-21.6,-14.112,-21.6
C-11.232,-21.6,-9.648,-21.6,-6.912,-21.6
C-1.152,-21.6,-2.16,-17.28,-4.464,-13.6
C-6.624,-10.88,-9.732,-8.96,-9.732,-6.08
C-9.732,-2.08,-7.75,-1.76,-6.192,-0.16
C11.088,-17.76,6.336,-13.12,10.368,-21.6
C17.28,-11.52,10.224,-5.44,4.752,0.48
C5.904,3.52,6.912,3.36,8.64,5.28
C10.368,3.84,9.36,1.12,10.512,1.12
C14.256,1.12,13.68,7.36,13.392,11.52
C12.816,16.96,8.496,17.119,5.904,22.72
C0.864,15.52,4.608,9.44,5.328,8.96
C4.32,6.56,4.032,5.44,1.872,4
C-10.656,15.2,-11.088,17.76,-13.104,22.72Z"/>
<path d="M19.26,4.32V-0.8
C19.26,-3.36,20.124,-5.6,24.156,-5.6
C31.788,-5.6,31.356,3.52,24.588,3.52
C23.868,3.52,24.012,4.32,24.731,5.12
C26.171,7.52,28.043,10.4,31.067,10.4H38.051
C38.051,10.4,43.199,10.88,43.199,-0.32V-4.16
C43.199,-12.16,35.171,-12.32,35.171,-12.32H21.275L18.179,-21.6H35.099
C35.099,-21.6,48.299,-21.44,48.299,-0.8V8.48
C48.299,20,35.388,19.7,35.388,19.7H25.596
C19.836,19.7,22.14,23.04,22.14,23.04
C17.532,20.32,16.668,11.52,23.724,10.24
C22.86,9.76,19.26,6.72,19.26,4.32Z"/>
<path d="M61.968,-15.68V-12.96
C61.968,-10.4,57.864,-4.16,57.864,0.24
C57.864,2.48,61.32,10.5,64.92,10.5H75
C75,10.5,80.4,10.96,80.4,3.52V-19.12
C80.4,-24.08,84.6,-20.4,84.6,-19.12V11.12
C84.6,20,78.096,19.7,78.096,19.7H60.168
C54.408,19.7,56.712,23.04,56.712,23.04
C51.672,20.16,51.24,10.4,59.736,10.4
C55.776,10.4,53.472,1.6,53.472,-0.24
C53.472,-3.44,57.792,-8.64,57.792,-10.24
C57.792,-12.48,56.496,-12.32,56.496,-12.32
C51.456,-12.32,51.312,-21.6,56.496,-21.6H57.936
C57.936,-21.6,61.968,-21.44,61.968,-15.84Z"/>
<path d="M-307.8,-143.7H-325.56
C-331.959,-143.7,-329.399,-140.36,-329.399,-140.36
C-334.999,-143.24,-335.479,-153,-325.56,-153H-311.48
C-305.72,-153,-309.7,-154.92,-309.7,-158.6V-182.44
C-309.7,-187.56,-305.1,-183.719,-305.1,-182.44V-159.4
C-305.1,-154.6,-295.64,-143.7,-307.8,-143.7Z"/>
<path d="M-282,-149.32
C-282,-143.4,-286.9,-143.7,-286.9,-143.7H-287.86
C-294.26,-143.7,-291.859,-140.68,-291.859,-140.68
C-297.299,-143.4,-297.619,-153,-290.58,-153
C-290.58,-153,-286.6,-152.52,-286.6,-157.48V-182.44
C-286.6,-187.56,-282,-183.72,-282,-182.44Z"/>
<path d="M-275,-182.44
C-275,-187.4,-270.4,-183.72,-270.4,-182.44V-166.28
C-270.4,-161.32,-275,-165,-275,-166.28V-182.44Z
M-255.7,-153
C-255.54,-153,-251.8,-152.52,-251.8,-157.16V-182.439
C-251.8,-187.399,-247.2,-183.719,-247.2,-182.439
C-247.22,-182.439,-247.2,-166.92,-247.2,-157.16
C-247.2,-152.52,-244.18,-152.2,-244.18,-148.2
C-244.18,-145.96,-245.3,-143.7,-247.38,-143.7H-270.26
C-276.66,-143.7,-274.1,-140.36,-274.1,-140.36
C-279.7,-143.24,-280.18,-153,-270.74,-153Z"/>
<path d="M240.2,-157V-182.44
C240.2,-187.4,244.8,-183.719,244.8,-182.44V-157
C244.8,-152.52,250.22,-153,250.22,-153H259.5
C259.659,-153,263.399,-152.52,263.399,-157.16V-182.44
C263.399,-187.4,267.999,-183.719,267.999,-182.44V-157
C271.679,-152.36,275.819,-143.7,263.179,-143.7H244.939
C238.54,-143.7,241.1,-140.36,241.1,-140.36
C235.5,-143.24,235.02,-153,244.459,-153
C242.86,-153,240.2,-154.76,240.2,-157Z"/>
<path d="M299.18,-175.72
C291.98,-175.72,280.94,-175.72,280.94,-175.72H280.14L276.7,-185H301.26
C301.26,-185,309.58,-185.16,309.58,-179.24
C309.58,-174.28,299.66,-167.56,297.1,-163.24
C299.18,-160.04,303.98,-155.56,303.98,-155.56
C306.22,-159.08,309.9,-158.44,309.9,-149.16
C309.9,-143.72,304.3,-143.7,304.3,-143.7H303.5
C297.1,-143.7,299.5,-140.681,299.5,-140.681
C294.06,-143.401,293.58,-153,300.62,-153
C299.66,-153.32,294.38,-159.4,294.7,-159.4
C294.7,-159.4,291.34,-160.84,291.34,-149.321
C291.34,-143.721,286.541,-143.701,286.541,-143.701H285.741
C279.341,-143.701,281.741,-140.681,281.741,-140.681
C276.301,-143.401,275.341,-153.001,282.861,-153.001
C283.821,-153.001,285.741,-152.041,286.701,-157.481
C288.141,-164.201,295.821,-171.561,299.181,-174.281
C301.26,-175.72,299.98,-175.72,299.181,-175.72Z"/>
<path d="M317.74,-175.72L314.3,-185H324.3
C324.3,-185,332.599,-184.84,332.599,-175.72V-149.32
C332.599,-143.4,327.82,-143.7,327.82,-143.7H327.02
C320.62,-143.7,323.02,-140.68,323.02,-140.68
C317.58,-143.4,317.1,-153,323.98,-153
C323.98,-153,328,-152.52,328,-157.48V-171.72
C328,-175.56,324.3,-175.72,324.3,-175.72Z"/>
<path d="M-29.8,-307H-47.56
C-53.96,-307,-51.399,-303.66,-51.399,-303.66
C-56.999,-306.54,-57.479,-316.3,-47.56,-316.3H-33.48
C-27.72,-316.3,-31.7,-318.22,-31.7,-321.9V-345.74
C-31.7,-350.859,-27.1,-347.019,-27.1,-345.74V-322.7
C-27.1,-317.9,-17.64,-307,-29.8,-307Z"/>
<path d="M-4.3,-312.62
C-4.3,-306.7,-9.2,-307,-9.2,-307H-10.16
C-16.56,-307,-14.159,-303.98,-14.159,-303.98
C-19.599,-306.7,-19.919,-316.3,-12.88,-316.3
C-12.88,-316.3,-8.9,-315.82,-8.9,-320.78V-345.74
C-8.9,-350.86,-4.3,-347.02,-4.3,-345.74Z"/>
<path d="M1.6,-325.9V-332.3
C1.6,-346.54,11.36,-348.3,13.76,-348.3H21.76
C24.159,-348.3,33.899,-346.54,33.899,-332.3V-318.22
C33.899,-306.7,19.52,-307,19.52,-307H8.8
C2.4,-307,4.8,-303.66,4.8,-303.66
C-0.64,-306.54,-1.28,-317.26,8.8,-316.3
C8.8,-316.3,1.6,-321.58,1.6,-325.9H1.6Z
M6.2,-332.3V-325.9
C6.2,-321.42,13.44,-316.3,13.44,-316.3H22.48
C22.48,-316.3,29.3,-315.82,29.3,-327.02V-329.1
C29.3,-338.86,20.64,-339.02,20.64,-339.02H13.28
C13.28,-339.02,6.2,-338.7,6.2,-332.3Z"/>
<path d="M44.68,-322.54
C41.16,-326.54,46.6,-326.22,48.04,-324.46
C49.96,-322.38,52.36,-319.98,52.36,-317.42V-312.62
C52.36,-306.7,47.4,-307,47.4,-307H46.44
C40.04,-307,42.44,-303.98,42.44,-303.98
C37,-306.7,36.68,-316.3,43.72,-316.3
C43.72,-316.3,50.6,-315.18,47.72,-318.7
C47.72,-318.7,45.8,-321.1,44.68,-322.54Z"/>
<path d="M-73.48,-669.18V-666.46
C-73.48,-663.9,-78.04,-657.66,-78.04,-653.26
C-78.04,-651.02,-74.2,-643,-70.2,-643H-59
C-59,-643,-53,-642.54,-53,-649.98V-672.62
C-53,-677.58,-48.4,-673.9,-48.4,-672.62V-642.38
C-48.4,-633.5,-55.56,-633.8,-55.56,-633.8H-75.48
C-81.88,-633.8,-79.32,-630.46,-79.32,-630.46
C-84.92,-633.34,-85.4,-643.1,-75.96,-643.1
C-80.36,-643.1,-82.92,-651.9,-82.92,-653.74
C-82.92,-656.94,-78.12,-662.14,-78.12,-663.74
C-78.12,-665.98,-79.56,-665.82,-79.56,-665.82
C-85.16,-665.82,-85.32,-675.1,-79.56,-675.1H-77.96
C-77.96,-675.1,-73.48,-674.94,-73.48,-669.34Z"/>
<path d="M-29.9,-639.42
C-29.9,-633.5,-34.8,-633.8,-34.8,-633.8H-35.76
C-42.16,-633.8,-39.76,-630.78,-39.76,-630.78
C-45.2,-633.5,-45.519,-643.1,-38.48,-643.1
C-38.48,-643.1,-34.5,-642.62,-34.5,-647.58V-672.54
C-34.5,-677.66,-29.9,-673.82,-29.9,-672.54Z"/>
<path d="M-21.96,-665.82L-25.4,-675.1H-6.6
C-6.6,-675.1,8.1,-674.94,8.1,-654.3V-645.02
C8.1,-633.5,-6.28,-633.8,-6.28,-633.8H-17.16
C-23.56,-633.8,-21,-630.46,-21,-630.46
C-26.6,-633.34,-27.08,-643.1,-17.16,-643.1H-3.32
C-3.32,-643.1,2.44,-642.62,2.44,-653.82V-657.66
C2.44,-665.66,-6.52,-665.82,-6.52,-665.82Z"/>
<path d="M12.26,-637.18
C12.26,-640.22,14.66,-643.1,19.94,-643.1H36.74
C36.74,-643.1,40.599,-642.62,40.599,-647.58V-649.66
C40.599,-657.659,24.901,-661.5,23.139,-667.58
C19.62,-679.74,37.059,-675.099,28.259,-668.219
C28.099,-668.06,27.94,-667.58,28.259,-667.42
C30.659,-665.66,45.199,-658.94,45.199,-649.66V-639.58
C45.199,-633.66,40.419,-633.8,40.419,-633.8H19.94
C17.7,-633.8,15.62,-632.046,20.259,-628.22
C21.859,-626.781,22.999,-625.5,22.999,-623.421
C22.999,-618.621,14.819,-619.741,14.819,-623.101
C14.819,-624.701,18.399,-623.741,18.399,-625.341
C18.399,-626.301,12.259,-628.221,12.259,-637.181Z"/>
<path d="M70.42,-633.8H68.02
C62.1,-633.8,65.78,-635.08,64.66,-639.72H62.26
C62.26,-633.82,59.54,-633.8,59.54,-633.8H58.74
C52.341,-633.8,54.741,-630.78,54.741,-630.78
C49.301,-633.5,48.341,-642.92,55.861,-642.92
C60.66,-642.92,50.901,-646.608,50.901,-652.7V-672.54
C50.901,-677.5,55.5,-673.819,55.5,-672.54V-653.34
C55.5,-651.58,62.086,-643.1,65.62,-643.1H67.54
C71.38,-643.1,78.6,-650.619,78.6,-657.979V-661.819
C78.6,-665.659,74.9,-665.819,74.9,-665.819H62.9L59.46,-675.099H75.06
C75.06,-675.099,83.2,-674.939,83.2,-665.819V-654.779
C83.2,-645.659,72.177,-633.799,70.42,-633.799Z"/>
<path d="M7.76,341H-6.448
C-11.568,341,-9.52,343.712,-9.52,343.712
C-14,341.408,-14.384,333.6,-6.448,333.6H4.816
C9.424,333.6,6.2,332.064,6.2,329.12V310.048
C6.2,305.952,9.9,309.024,9.9,310.048V328.48
C9.9,332.32,17.488,341,7.76,341Z"/>
<path d="M-144.1,578.544
C-144.1,583.28,-148.04,583,-148.04,583H-148.808
C-153.927,583,-152.008,585.456,-152.008,585.456
C-156.359,583.28,-156.615,575.6,-150.984,575.6
C-150.984,575.6,-147.8,575.983,-147.8,572.016V552.048
C-147.8,547.952,-144.1,551.024,-144.1,552.048Z"/>
<path d="M128.6,558.384
C128.6,554.54,132.2,557.392,132.2,558.384V570.908
C132.2,574.752,128.6,571.9,128.6,570.908V558.384Z
M143.6,581.2
C143.724,581.2,146.6,581.572,146.6,577.976V558.384
C146.6,554.54,150.199,557.392,150.199,558.384
C150.172,558.384,150.199,570.412,150.199,577.976
C150.199,581.572,152.527,581.82,152.527,584.92
C152.527,586.656,151.659,588.4,150.047,588.4H132.315
C127.355,588.4,129.34,590.996,129.34,590.996
C125,588.764,124.628,581.2,131.943,581.2Z"/>
<path d="M3.072,481.424H0.768
C0,481.424,-1.28,482.576,-0.64,483.856
C2.304,490.384,7.04,504.336,3.328,506.256
C1.92,507.023,0.384,506.511,0,509.456
C-4.48,507.28,-4.864,499.728,0.768,499.728
C0.768,499.728,-3.584,481.424,-7.68,481.424
C-9.472,481.424,-10.528,483.728,-10.528,485.52V490
C-10.528,494.864,-3.2,503.696,-7.937,506.256
C-9.472,507.023,-10.88,506.511,-11.392,509.456
C-15.744,507.28,-16.256,499.728,-10.624,499.728
C-10.624,499.728,-14.1,493.2,-14.1,489.616V479.76
C-14.1,474.256,-10.112,474,-10.112,474H3.199
C7.935,474,19.199,504.336,15.487,506.256
C14.079,507.024,11.647,506.512,11.135,509.456
C6.783,507.28,6.399,499.728,11.903,499.728
C11.903,499.728,7.423,481.424,3.071,481.424Z"/>
<path d="M-129.4,378.72
C-129.4,375.496,-125.8,377.888,-125.8,378.72V398.74
C-125.8,401.86,-129.4,399.468,-129.4,398.74V378.72Z
M-109.7,400.456
C-109.7,397.544,-119.732,392.344,-119.732,389.016
C-119.732,384.96,-116.508,384.96,-116.508,389.016
C-116.508,391.72,-106.1,396.92,-106.1,400.456V407.164
C-106.1,412.936,-111.672,412.8,-111.672,412.8H-125.684
C-130.644,412.8,-128.784,414.909,-128.66,415.015
C-133,413.144,-133.372,406.8,-125.684,406.8H-114.338
C-114.338,406.8,-109.7,407.111,-109.7,402.276Z"/>
<path d="M114.016,394.052
C115.296,394.884,119.84,403.7,109.472,403.7L108.64,403.78
C104.16,403.78,103.648,404.995,103.072,405.955
C101.856,405.188,98.016,397.124,106.528,396.419
C102.88,389.635,108.004,384.516,107.3,372.548
C107.3,368.58,110.2,371.524,110.2,372.548
C112.952,383.479,107.04,390.51,109.536,396.263
C113.504,396.137,113.504,395,114.016,394.052Z"/>
<path d="M-177,329.468
C-176.956,331.452,-177,332.816,-177,334.8
C-174.396,334.8,-173.112,342,-179.188,342H-179.808
C-184.768,342,-182.907,344.471,-182.907,344.471
C-187.619,341,-187.123,334.962,-180.552,334.838
C-180.552,334.838,-180.599,333.463,-180.599,330.212
C-180.599,326.74,-183.056,324.012,-185.635,322.276
C-189.851,325.748,-192.699,327.732,-192.699,329.592
C-192.703,331.576,-192.699,332.816,-192.699,334.8
C-187.491,334.8,-187.247,342,-193.323,342H-193.943
C-198.903,342,-197.043,344.347,-197.043,344.347
C-201.259,342.24,-201.631,334.8,-196.299,334.8
C-196.299,334.8,-196.299,331.204,-196.299,328.848
C-196.299,324.26,-193.075,323.144,-190.347,320.416
C-190.347,320.416,-195.927,318.308,-199.523,316.696
C-202.623,315.456,-201.755,310,-197.787,310
C-197.787,310,-176.999,313.968,-176.999,329.468Z"/>
<path d="M190.528,331.632
C190.016,330.48,191.424,329.712,191.808,330.992
C193.344,335.216,194.496,335.6,195.647,335.6
C195.647,335.6,198.299,336.112,198.299,330.352V329.584
C198.299,326.512,194.092,317.424,188.991,317.424H183.615
C183.615,317.424,180,317.296,180,320.752V327.408
C180,330.096,180.909,329.968,182.079,331.248
C182.463,331.12,183.999,330.224,183.743,328.176
C186.047,328.944,187.455,330.48,187.455,332.656
C187.455,335.728,187.967,336.496,185.535,338.928
C183.871,340.592,181.567,341.36,181.183,345.456
C179.775,343.664,178.092,343.024,178.092,339.184
C178.092,335.472,178.739,335.984,180.031,333.808
C177.728,331.376,176.3,330.096,176.3,327.408V317.424
C176.3,312.56,180.281,310,182.592,310H189.119
C196.927,310,201.999,322.288,201.999,329.584V338.544
C201.999,343.28,198.079,343,198.079,343H193.599
C193.599,343,192.1,342.874,192.1,341.232
C192.1,339.696,192.448,337.136,190.528,331.632Z"/>
<path d="M-280.2,319.288V335.544
C-280.2,340.28,-284.04,340,-284.04,340H-284.552
C-289.8,340,-287.752,342.455,-287.752,342.455
C-292.232,340.28,-292.615,332.599,-286.984,332.599
C-286.984,332.599,-283.9,332.983,-283.9,329.015V319.159
C-283.9,314.424,-287.368,314.424,-287.368,314.424H-288.647
C-293.127,314.424,-293.255,307,-288.647,307H-288.135
C-285.96,307,-284.168,309.56,-282.632,312.12
C-281.352,310.968,-280.456,309.176,-280.072,308.536
C-278.024,305.208,-274.824,307.896,-276.488,310.583
C-278.024,313.143,-280.072,313.783,-280.2,319.287Z"/>
<path d="M271.648,314.424L268.896,307H293.984L296.736,314.424H294.624
C294.624,314.424,293.3,314.424,293.3,316.344V335.544
C293.3,340.28,289.376,340,289.376,340H275.168
C270.049,340,272.097,342.711,272.097,342.711
C267.617,340.407,267.233,332.6,275.168,332.6H286.432
C286.432,332.6,289.6,332.983,289.6,329.016V317.624
C289.6,314.552,286.688,314.424,286.688,314.424Z"/>
<path d="M-11.648,181.656
C-18.816,173.336,-10.368,168.984,-8.32,166.68
C-9.344,163.224,-14.1,162.456,-14.1,158.616V153.752
C-14.1,150.808,-12.18,151.704,-12.18,150.168
C-12.18,148.504,-16.384,146.2,-12.544,146.2
C-9.984,146.2,-8.576,146.2,-6.144,146.2
C-1.024,146.2,-1.92,149.656,-3.968,152.6
C-5.888,154.776,-8.684,156.312,-8.684,158.616
C-8.684,161.816,-6.903,162.072,-5.504,163.352
C9.856,149.272,5.632,152.984,9.216,146.2
C15.36,154.264,9.088,159.128,4.224,163.864
C5.248,166.296,6.144,166.168,7.68,167.704
C9.216,166.552,8.32,164.376,9.344,164.376
C12.672,164.376,12.16,169.368,11.904,172.696
C11.392,177.048,7.552,177.176,5.248,181.656
C0.768,175.896,4.096,171.032,4.736,170.648
C3.84,168.728,3.584,167.832,1.664,166.68
C-9.472,175.64,-9.856,177.688,-11.648,181.656Z"/>
<path d="M-136.056,70.424
C-141.816,70.424,-150.648,70.424,-150.648,70.424H-151.288L-154.04,63H-134.392
C-134.392,63,-127.736,62.872,-127.736,67.608
C-127.736,71.576,-135.672,76.952,-137.72,80.408
C-136.056,82.968,-132.216,86.552,-132.216,86.552
C-130.424,83.736,-127.48,84.248,-127.48,91.671
C-127.48,96.023,-131.96,95.999,-131.96,95.999H-132.6
C-137.72,95.999,-135.8,98.455,-135.8,98.455
C-140.152,96.279,-140.536,88.599,-134.904,88.599
C-135.672,88.343,-139.896,83.479,-139.64,83.479
C-139.64,83.479,-142.328,82.327,-142.328,91.543
C-142.328,96.023,-146.167,95.999,-146.167,95.999H-146.807
C-151.927,95.999,-150.007,98.455,-150.007,98.455
C-154.359,96.279,-155.127,88.599,-149.111,88.599
C-148.344,88.599,-146.807,89.367,-146.04,85.015
C-144.888,79.639,-138.744,73.751,-136.056,71.575
C-134.392,70.423,-135.416,70.423,-136.056,70.423Z"/>
<path d="M125.6,82.9V63.184
C125.6,59.34,129.2,62.192,129.2,63.184V82.9
C129.2,86.372,133.407,86,133.407,86H140.599
C140.723,86,143.599,86.372,143.599,82.776V63.184
C143.599,59.34,147.199,62.192,147.199,63.184V82.9
C150.051,86.496,153.247,93.2,143.451,93.2H129.315
C124.355,93.2,126.339,95.796,126.339,95.796
C122,93.564,121.627,86,128.943,86
C127.703,86,125.599,84.636,125.599,82.9Z"/>
<path d="M-157.1,-84.08V-89.2
C-157.1,-100.592,-149.276,-102,-147.352,-102H-140.952
C-139.032,-102,-131.2,-100.592,-131.2,-89.2V-77.936
C-131.2,-68.72,-142.744,-69,-142.744,-69H-151.32
C-156.44,-69,-154.52,-66.288,-154.52,-66.288
C-158.872,-68.592,-159.384,-77.168,-151.32,-76.4
C-151.32,-76.4,-157.1,-80.624,-157.1,-84.08Z
M-153.4,-89.2V-84.08
C-153.4,-80.496,-147.608,-76.4,-147.608,-76.4H-140.376
C-140.376,-76.4,-134.9,-76.016,-134.9,-84.976V-86.64
C-134.9,-94.448,-141.848,-94.576,-141.848,-94.576H-147.736
C-147.736,-94.576,-153.4,-94.32,-153.4,-89.2Z"/>
<path d="M130.784,-81.392
C127.968,-84.592,132.32,-84.336,133.472,-82.928
C135.008,-81.264,136.928,-79.344,136.928,-77.296V-73.456
C136.928,-68.72,132.96,-69,132.96,-69H132.192
C127.072,-69,128.992,-66.544,128.992,-66.544
C124.64,-68.72,124.384,-76.4,130.016,-76.4
C130.016,-76.4,135.52,-75.504,133.216,-78.32
C133.216,-78.32,131.68,-80.24,130.784,-81.392Z"/>
<path d="M-297.08,-1.264V-5.36
C-297.08,-7.408,-296.312,-9.2,-292.728,-9.2
C-285.944,-9.2,-286.328,-1.864,-292.344,-1.864
C-292.984,-1.864,-292.856,-1.244,-292.216,-0.624
C-290.937,1.296,-289.272,3.6,-286.584,3.6H-280.377
C-280.377,3.6,-275.701,3.984,-275.701,-4.976V-8.048
C-275.701,-14.448,-282.937,-14.575,-282.937,-14.575H-295.289L-298.041,-21.999H-283.001
C-283.001,-21.999,-271.201,-21.871,-271.201,-5.359V2.064
C-271.201,11.28,-282.745,11,-282.745,11H-291.449
C-296.569,11,-294.521,13.712,-294.521,13.712
C-298.616,11.536,-299.384,4.496,-293.113,3.472
C-293.88,3.088,-297.08,0.656,-297.08,-1.264Z"/>
<path d="M269.712,-14.576L266.96,-22H282
C282,-22,293.8,-21.872,293.8,-5.36V2.064
C293.8,11.28,282.256,11,282.256,11H273.552
C268.432,11,270.48,13.712,270.48,13.712
C266,11.408,265.616,3.6,273.552,3.6H284.624
C284.624,3.6,289.231,3.984,289.231,-4.976V-8.048
C289.231,-14.448,282.063,-14.576,282.063,-14.576Z"/>
<path d="M1.536,-147.6H-0.384
C-5.12,-147.6,-2.176,-148.624,-3.072,-152.336H-4.992
C-4.992,-147.576,-7.168,-147.6,-7.168,-147.6H-7.808
C-12.928,-147.6,-11.008,-145.144,-11.008,-145.144
C-15.359,-147.32,-16.127,-154.936,-10.112,-154.936
C-6.272,-154.936,-14.099,-157.856,-14.099,-162.68V-178.552
C-14.099,-182.52,-10.399,-179.576,-10.399,-178.552V-163.192
C-10.399,-161.784,-5.131,-155,-2.303,-155H-0.768
C2.304,-155,8.1,-161.016,8.1,-166.904V-169.976
C8.1,-173.047,5.12,-173.176,5.12,-173.176H-4.479L-7.231,-180.599H5.249
C5.249,-180.599,11.8,-180.471,11.8,-173.176V-164.344
C11.8,-157.048,2.948,-147.6,1.536,-147.6Z"/>
<path d="M10.9,-201.24
C10.9,-192.6,-0.252,-192.8,-0.252,-192.8H-8.684
C-13.644,-192.8,-11.66,-190.32,-11.66,-190.32
C-16,-192.48,-16.372,-199.8,-8.684,-199.8H2.042
C2.042,-199.8,7.3,-199.44,7.3,-207.84V-222
C7.3,-225.6,10.9,-222.84,10.9,-222Z"/>
<path d="M132.712,-256.776L129.96,-264.2H137.96
C137.96,-264.2,144.6,-264.072,144.6,-256.776V-235.656
C144.6,-230.92,140.776,-231.2,140.776,-231.2H140.136
C135.016,-231.2,136.936,-228.744,136.936,-228.744
C132.584,-230.92,132.2,-238.6,137.704,-238.6
C137.704,-238.6,140.899,-238.217,140.899,-242.184V-253.576
C140.899,-256.648,137.959,-256.776,137.959,-256.776Z"/>
<path d="M-156.636,-235.56
C-156.636,-237.84,-154.776,-240,-150.684,-240H-137.664
C-137.664,-240,-134.7,-239.64,-134.7,-243.36V-244.919
C-134.7,-250.919,-146.841,-253.799,-148.204,-258.359
C-150.932,-267.479,-137.417,-263.999,-144.237,-258.839
C-144.36,-258.719,-144.484,-258.359,-144.237,-258.24
C-142.377,-256.92,-131.101,-251.88,-131.101,-244.92V-237.36
C-131.101,-232.92,-134.813,-233,-134.813,-233H-150.684
C-152.42,-233,-154.032,-231.693,-150.437,-228.84
C-149.197,-227.76,-148.301,-226.8,-148.301,-225.24
C-148.301,-221.64,-154.652,-222.48,-154.652,-225
C-154.652,-226.2,-151.9,-225.48,-151.9,-226.68
C-151.9,-227.4,-156.636,-228.84,-156.636,-235.56Z"/>
<path d="M-6.784,-508.264V-506.088
C-6.784,-504.04,-10.432,-499.048,-10.432,-495.528
C-10.432,-493.736,-7.36,-487.4,-4.16,-487.4H4.8
C4.8,-487.4,9.6,-486.952,9.6,-492.904V-511.016
C9.6,-514.984,13.3,-512.04,13.3,-511.016V-486.824
C13.3,-479.72,7.552,-480,7.552,-480H-8.384
C-13.504,-480,-11.456,-477.288,-11.456,-477.288
C-15.936,-479.592,-16.319,-487.4,-8.768,-487.4
C-12.287,-487.4,-14.335,-494.44,-14.335,-495.912
C-14.335,-498.472,-10.496,-502.632,-10.496,-503.912
C-10.496,-505.704,-11.648,-505.576,-11.648,-505.576
C-16.127,-505.576,-16.255,-513,-11.648,-513H-10.368
C-10.368,-513,-6.784,-512.872,-6.784,-508.392Z"/>
</g></svg>